<svg width="1200" height="380" viewBox="0 0 1200 380" fill="none" xmlns="http://www.w3.org/2000/svg">
  <defs>
    <linearGradient id="bg" x1="0" y1="0" x2="1200" y2="380" gradientUnits="userSpaceOnUse">
      <stop stop-color="#E0F2FE"/>
      <stop offset="1" stop-color="#DBEAFE"/>
    </linearGradient>
    <linearGradient id="roof" x1="600" y1="60" x2="600" y2="220" gradientUnits="userSpaceOnUse">
      <stop stop-color="#38BDF8"/>
      <stop offset="1" stop-color="#0EA5E9"/>
    </linearGradient>
  </defs>
  <rect width="1200" height="380" rx="26" fill="url(#bg)"/>
  <circle cx="1060" cy="70" r="38" fill="#FCD34D" opacity="0.85"/>
  <rect x="130" y="220" width="940" height="24" rx="12" fill="#334155" opacity="0.25"/>
  <path d="M170 220L600 70L1030 220H170Z" fill="url(#roof)"/>
  <rect x="210" y="220" width="780" height="90" rx="10" fill="#F8FAFC" stroke="#94A3B8"/>
  <rect x="260" y="238" width="72" height="72" rx="6" fill="#BFDBFE"/>
  <rect x="380" y="238" width="72" height="72" rx="6" fill="#BFDBFE"/>
  <rect x="500" y="238" width="72" height="72" rx="6" fill="#BFDBFE"/>
  <rect x="620" y="238" width="72" height="72" rx="6" fill="#BFDBFE"/>
  <rect x="740" y="238" width="72" height="72" rx="6" fill="#BFDBFE"/>
  <rect x="860" y="238" width="72" height="72" rx="6" fill="#BFDBFE"/>
  <text x="600" y="355" text-anchor="middle" font-size="34" font-family="sans-serif" font-weight="700" fill="#1E3A8A">
    ภาพโดมโรงเรียน (ตัวอย่าง)
  </text>
</svg>
